<svg width="40" height="37" viewBox="0 0 40 37" fill="none" xmlns="http://www.w3.org/2000/svg">
<g clip-path="url(#clip0_720_108)">
<path d="M24.7756 36.1191C21.0651 36.1191 17.3544 36.101 13.6441 36.1249C10.6611 36.144 7.67934 36.2302 4.69663 36.2508C3.85748 36.2508 3.01948 36.1879 2.18968 36.0633C0.402226 35.8071 -0.308957 34.7509 0.286297 33.0468C0.693343 31.9054 1.22528 30.8121 1.87242 29.787C4.61429 25.3965 8.60375 22.5454 13.3849 20.7086C15.9806 19.6908 18.7393 19.1492 21.5281 19.11C25.6976 19.0739 29.5359 20.1296 32.8137 22.8735C35.0513 24.7211 36.8801 27.0118 38.1842 29.6006C38.5473 30.3242 38.9562 31.0309 39.2471 31.7827C39.5262 32.4768 39.7213 33.2018 39.8284 33.9419C39.9717 35.0509 39.3523 35.7861 38.2427 35.9256C37.4684 36.0305 36.6884 36.0889 35.9069 36.1004C32.1966 36.1173 28.4859 36.1083 24.7756 36.1083V36.1191ZM36.9656 33.4126C36.98 33.2946 36.9788 33.1752 36.962 33.0576C35.7801 29.9958 34.1471 27.2284 31.624 25.0606C29.6776 23.3883 27.4942 22.1849 24.9006 21.8585C21.912 21.4826 18.9506 21.5614 16.0295 22.3825C10.5031 23.9358 6.09375 26.9936 3.07426 31.9231C2.7307 32.4838 2.45798 33.0875 2.14205 33.6894C2.23807 33.7418 2.33826 33.7863 2.44156 33.8224C3.47546 34.0491 4.50648 33.9157 5.54919 33.8576C7.71614 33.7364 9.88904 33.6843 12.0597 33.6732C19.1613 33.6367 26.263 33.6394 33.3647 33.6056C34.5468 33.5993 35.7269 33.4817 36.9661 33.4126H36.9656Z" fill="#1655F2"/>
<path d="M20.7262 0.118501C23.585 0.0490328 25.9735 1.41031 27.7868 3.88429C28.2143 4.46758 28.7301 5.00913 29.0423 5.64888C29.7399 7.07881 30.3179 8.54777 29.947 10.2167C29.5989 11.7839 29.145 13.293 28.1335 14.5775C26.3346 16.8593 24.0412 18.2701 21.1102 18.6208C18.4719 18.9367 15.9633 18.5468 13.6211 17.3084C11.2087 16.0329 9.8362 13.969 9.33789 11.3172C8.58789 7.32526 10.6813 3.74503 13.9844 1.84149C15.9832 0.689265 18.1416 0.108529 20.7262 0.118501ZM26.9902 8.22886C27.1212 7.2225 26.7175 6.4188 26.0919 5.68642C25.8479 5.4006 25.6272 5.09398 25.3731 4.81763C24.4535 3.81735 23.4048 3.02601 22.0099 2.81659C20.0543 2.49372 18.0467 2.75626 16.2408 3.57109C13.9835 4.60669 12.2996 6.18553 11.9116 8.81079C11.4591 11.8733 13.0433 14.614 15.8608 15.5188C17.549 16.0452 19.3318 16.1999 21.0858 15.9721C23.4836 15.6983 26.3062 13.2394 26.6873 10.7155C26.8119 9.89 26.8906 9.05743 26.9902 8.22803V8.22886Z" fill="#1655F2"/>
</g>
<defs>
<clipPath id="clip0_720_108">
<rect width="40" height="36.3399" fill="white"/>
</clipPath>
</defs>
</svg>
