<svg width="40" height="37" viewBox="0 0 40 37" fill="none" xmlns="http://www.w3.org/2000/svg">
<g clip-path="url(#clip0_720_104)">
<path d="M39.982 16.0472C39.9126 11.9399 38.2441 8.43458 35.0193 5.62896C32.4335 3.37668 29.2577 1.73633 25.5831 0.751597C24.161 0.371682 22.6583 0.0461933 21.0864 0.0461933C20.2596 0.0436019 19.4353 0.140376 18.6318 0.334431C14.9426 1.23769 12.2371 2.2813 9.86183 3.72213C6.30969 5.87689 4.05413 8.01743 2.54844 10.664C0.51335 14.2365 -0.227712 17.9239 0.282744 21.9372C0.584218 24.2999 1.45101 26.631 3.01143 29.2732C4.24161 31.3549 5.81931 32.8487 7.83559 33.8379C8.89552 34.3599 9.93817 34.8645 11.0185 35.3246C13.8782 36.5432 16.8117 37.0364 20.5311 36.9231C20.7633 36.8916 21.0474 36.8573 21.3704 36.8185C22.2329 36.7152 23.4141 36.5747 24.5634 36.3669C27.7752 35.7877 30.4058 34.8058 32.6055 33.3649C33.34 32.8925 34.0107 32.3288 34.6015 31.6875C35.6958 30.465 36.6295 29.1094 37.3804 27.6531C39.2031 24.1704 40.054 20.374 39.982 16.0472ZM6.82307 7.86968C9.5964 5.35217 12.6078 3.60175 16.0285 2.51935L16.6214 2.33153L16.1714 2.75874C14.0687 4.76296 12.7057 7.26038 11.7525 9.21157L11.7136 9.29336L11.6213 9.29196C10.4458 9.28052 7.86154 8.63537 6.8534 8.10198L6.6732 8.00599L6.82307 7.86968ZM1.70199 18.3058C2.03504 14.964 3.27094 11.9978 5.48049 9.2395L5.54096 9.16483L11.0502 10.7921L10.9968 10.9355C10.1195 13.2891 9.50011 15.7299 9.14941 18.2155L9.13201 18.3374L1.68597 18.4664L1.70199 18.3058ZM4.39164 28.8174L4.32527 28.7157C2.48499 25.8583 1.60666 22.9524 1.64133 19.8327L1.64273 19.6908H8.8335L8.99936 26.8575L4.39164 28.8174ZM10.8022 33.6002C8.77003 32.7056 6.66885 31.7808 5.16008 29.907L5.05341 29.7751L5.20192 29.6934C6.55041 28.9378 7.94212 28.4978 9.12471 28.1665L9.28189 28.1236L9.30645 28.2826C9.65115 30.4245 10.2409 32.0732 11.1611 33.4696L11.4293 33.8753L10.8022 33.6002ZM18.3664 35.3302L18.2381 35.3403C17.9995 35.3604 17.7636 35.3705 17.5299 35.3705C16.5627 35.3506 15.6002 35.2293 14.6584 35.009C14.4848 34.9557 14.338 34.839 14.2475 34.6823L14.0398 34.3453C13.4924 33.4551 12.9408 32.9909 12.3957 31.6142C11.8526 30.2423 11.4165 28.9332 11.2752 27.7319L11.2611 27.6043L11.3866 27.5764C13.7251 27.0412 16.1069 26.7138 18.5038 26.5986L18.661 26.5899L18.3664 35.3302ZM18.7269 25.1613L11.0848 26.2566L11.0646 26.1147C10.7487 23.9155 10.798 21.676 10.8872 19.7751L10.893 19.6389H18.9563L18.7269 25.1613ZM19.0009 18.1693H11.0948L11.1089 18.0131C11.3122 15.8455 11.8343 13.6017 12.7039 11.1531L12.7414 11.0484L19.001 11.5459L19.0009 18.1693ZM19.0471 10.0793L13.3 9.73045L13.3823 9.54265C14.882 6.09649 16.7871 3.63451 19.3803 1.79926L19.6297 1.62292L19.0471 10.0793ZM25.8471 2.7992C28.1963 3.49011 31.2148 4.57979 33.7358 6.90114L33.8872 7.04066L33.5151 7.22983C32.3238 7.83633 31.1994 8.40837 29.8405 8.62058L29.7452 8.63636L29.6948 8.55263C29.4958 8.22852 29.3018 7.90022 29.1078 7.57193C28.1544 5.96911 27.1695 4.31036 25.7114 3.04449L25.2138 2.61296L25.8471 2.7992ZM20.9536 3.09596C20.971 2.73893 20.9883 2.37913 21.0041 2.01931L21.0142 1.81142L21.2061 1.89304C24.0514 3.11022 26.0836 5.26078 27.7954 8.86641L27.8747 9.03384L27.2041 9.15857C25.0885 9.55578 23.0896 9.93137 20.9585 10.0002L20.8128 10.0045L20.81 9.85964C20.7432 7.58964 20.8455 5.4067 20.9537 3.09568L20.9536 3.09596ZM20.7852 11.5961L28.6027 10.4176L28.6459 10.5179C29.5748 12.6054 30.0132 14.9422 29.9857 17.6613V17.7989L20.7846 18.1416L20.7852 11.5961ZM20.6972 19.5815L29.9633 19.2905L29.9589 19.444C29.8955 21.4921 29.6656 23.5317 29.2712 25.5428L29.2466 25.6676L20.4767 25.0424L20.6972 19.5815ZM24.1325 34.8902C23.1807 35.0436 22.226 35.1726 21.2165 35.3087C20.8718 35.356 20.5213 35.4033 20.1622 35.4522L19.9905 35.4764L20.3784 26.5376L20.5112 26.5333C22.9485 26.4415 25.4608 26.6294 28.6552 27.1412L28.8298 27.1691L28.7678 27.3326C28.7028 27.5046 28.6379 27.6753 28.5745 27.8459C28.0131 29.3441 27.3281 30.6688 26.6218 32.0421C25.8452 33.5516 24.3923 34.8483 24.1323 34.8899L24.1325 34.8902ZM34.7024 28.8788C33.2904 31.5884 30.8561 32.7942 28.4375 33.6945L28.0379 33.8435L28.2643 33.4837C29.323 31.8094 30.0138 29.9841 30.7449 28.0516L30.9382 27.5399L34.7817 28.7268L34.7024 28.8788ZM38.1362 19.1528C37.8809 22.2094 37.1397 24.7699 35.8057 27.21L35.7522 27.3089L31.404 26.1764L32.1497 19.1987L38.1491 18.9923L38.1362 19.1528ZM38.2127 17.3636L38.1967 17.4855L32.1382 17.6979L32.1208 17.5687C32.0688 17.178 32.0225 16.783 31.9766 16.4002C31.8757 15.5343 31.7703 14.6411 31.5901 13.7838C31.4113 12.9394 31.1589 12.1266 30.8906 11.2663C30.7768 10.8964 30.657 10.5151 30.5459 10.1323L30.5099 10.0091L34.985 8.16394L35.0513 8.21262C37.0816 9.71205 38.6176 14.161 38.2124 17.3633L38.2127 17.3636Z" fill="#1655F2"/>
</g>
<defs>
<clipPath id="clip0_720_104">
<rect width="40" height="36.973" fill="white"/>
</clipPath>
</defs>
</svg>
