<svg width="41" height="39" viewBox="0 0 41 39" fill="none" xmlns="http://www.w3.org/2000/svg">
<path d="M34.0161 7.01597C34.1087 6.93328 34.1825 6.83178 34.2327 6.71823C34.2828 6.60468 34.3081 6.48172 34.3069 6.3576C34.3057 6.23348 34.278 6.11104 34.2256 5.99851C34.1732 5.88598 34.0974 5.78594 34.0032 5.7051C33.9039 5.61999 33.8055 5.53534 33.7078 5.45113C32.9622 4.81015 32.1916 4.14646 31.3853 3.58033C25.2259 -0.754635 18.8263 -0.779022 12.3648 1.51998C6.51465 3.60001 2.75775 7.7614 1.19694 13.8863C-0.544178 20.7293 0.980482 26.7662 5.73172 31.8314C5.85534 31.9623 5.98148 32.0931 6.10746 32.2183C8.65976 34.7706 11.8387 36.3464 14.3576 37.4428C15.4387 37.9151 20.986 38.4884 22.4869 38.2648C31.4066 36.9328 37.2765 31.9019 39.3209 23.4853C39.7112 21.8366 39.9056 20.1477 39.8999 18.4535C39.8911 16.6742 39.5919 14.9083 39.0141 13.2254C38.972 13.0996 38.9026 12.9845 38.8109 12.8886C38.7192 12.7926 38.6074 12.7182 38.4835 12.6705C38.3597 12.6228 38.2268 12.6031 38.0944 12.6127C37.9621 12.6224 37.8335 12.6612 37.7178 12.7264L37.6936 12.7402C37.5099 12.8454 37.369 13.0119 37.2956 13.2105C37.2222 13.4091 37.221 13.6271 37.2921 13.8265C37.8137 15.2731 38.0796 16.7993 38.0781 18.3369C38.06 20.1817 37.8103 22.0168 37.3347 23.7993C35.9254 28.9215 32.5562 32.6547 27.0343 35.2082C21.4208 37.8959 13.3705 35.1788 11.2285 33.7646C8.8611 32.1461 6.78958 30.1326 5.10453 27.812C2.46191 24.0704 1.86904 18.6925 3.28907 13.7759C3.9536 11.5059 5.11498 9.41216 6.68899 7.64661C8.26301 5.88106 10.2102 4.48792 12.3894 3.56821C18.0586 1.21219 23.747 0.79659 29.2952 4.32508C30.0391 4.7987 31.9357 6.28803 32.8944 7.0486C33.0553 7.17618 33.256 7.2428 33.4613 7.23664C33.6665 7.23048 33.8629 7.15197 34.0158 7.01497L34.0161 7.01597Z" fill="#1655F2"/>
<path d="M17.9953 24.5382C18.3753 24.1771 18.584 23.9944 18.775 23.7947C24.9007 17.3949 31.6094 11.6332 38.3577 5.91602C38.6127 5.70006 38.8737 5.42457 39.1756 5.3472C39.5396 5.25419 40.1331 5.36117 40.2958 5.55879C40.4027 5.70484 40.4702 5.87589 40.492 6.05555C40.5137 6.23521 40.4889 6.41744 40.4199 6.58476C40.2613 7.00069 39.875 7.35693 39.5245 7.66825C37.4327 9.52693 35.2825 11.3215 33.2277 13.2186C28.9323 17.1855 24.6643 21.182 20.4237 25.2079C18.5655 26.9682 17.8503 27.0395 16.1405 25.1586C15.015 23.9199 11.6182 19.745 10.5779 18.4296C10.4309 18.2252 10.3 18.0096 10.1864 17.7849C9.95172 17.3688 9.79833 16.9104 10.2647 16.5878C10.7843 16.2285 11.1529 16.6034 11.4609 16.9938C11.7726 17.389 12.0383 17.8231 12.372 18.1977C13.4079 19.3601 16.876 23.3122 17.9953 24.5382Z" fill="#1655F2"/>
</svg>
